<svg xmlns="http://www.w3.org/2000/svg" width="430" height="165" viewBox="0 0 430 165" role="img" aria-labelledby="title desc">
  <title id="title">En çok kullanılan diller</title>
  <desc id="desc">Jupyter Notebook, PHP, Python, JavaScript, CSS ve Blade dil dağılımı</desc>
  <rect x="0.5" y="0.5" width="429" height="164" rx="8" fill="#F8F8F5" stroke="#E6E6E2"/>
  <text x="22" y="31" fill="#F25154" font-family="Arial, Helvetica, sans-serif" font-size="15" font-weight="700" letter-spacing="1.2">LANGUAGES / DISTRIBUTION</text>
  <line x1="22" y1="45" x2="408" y2="45" stroke="#151515" stroke-opacity="0.12"/>

  <clipPath id="bar"><rect x="22" y="61" width="386" height="10" rx="5"/></clipPath>
  <g clip-path="url(#bar)">
    <rect x="22" y="61" width="334" height="10" fill="#DA5B0B"/>
    <rect x="356" y="61" width="23" height="10" fill="#4F5D95"/>
    <rect x="379" y="61" width="8" height="10" fill="#3572A5"/>
    <rect x="387" y="61" width="7" height="10" fill="#F1E05A"/>
    <rect x="394" y="61" width="6" height="10" fill="#663399"/>
    <rect x="400" y="61" width="5" height="10" fill="#F7523F"/>
    <rect x="405" y="61" width="3" height="10" fill="#B8B8B3"/>
  </g>

  <g font-family="Arial, Helvetica, sans-serif" font-size="11" fill="#151515">
    <circle cx="27" cy="94" r="4" fill="#DA5B0B"/><text x="38" y="98">Jupyter Notebook</text><text x="185" y="98" fill="#6A6A6A">86.52%</text>
    <circle cx="250" cy="94" r="4" fill="#4F5D95"/><text x="261" y="98">PHP</text><text x="385" y="98" fill="#6A6A6A">6.04%</text>

    <circle cx="27" cy="119" r="4" fill="#3572A5"/><text x="38" y="123">Python</text><text x="185" y="123" fill="#6A6A6A">1.95%</text>
    <circle cx="250" cy="119" r="4" fill="#F1E05A"/><text x="261" y="123">JavaScript</text><text x="385" y="123" fill="#6A6A6A">1.73%</text>

    <circle cx="27" cy="144" r="4" fill="#663399"/><text x="38" y="148">CSS</text><text x="185" y="148" fill="#6A6A6A">1.46%</text>
    <circle cx="250" cy="144" r="4" fill="#F7523F"/><text x="261" y="148">Blade</text><text x="385" y="148" fill="#6A6A6A">1.18%</text>
  </g>
</svg>
